<svg height="512" viewBox="0 0 64 64" width="512" xmlns="http://www.w3.org/2000/svg"><path d="m12.5 16.379h2v4.243h-2z" fill="#ffd782" transform="matrix(.707 -.707 .707 .707 -9.127 14.964)"/><path d="m18.586 18h2.828v2h-2.828z" fill="#ffd782" transform="matrix(.707 -.707 .707 .707 -7.577 19.707)"/><path d="m34.379 4.5h4.243v2h-4.243z" fill="#ffd782" transform="matrix(.707 -.707 .707 .707 6.802 27.42)"/><path d="m26.5 3.379h2v4.243h-2z" fill="#ffd782" transform="matrix(.707 -.707 .707 .707 4.165 21.056)"/><path d="m31 3h2v3h-2z" fill="#ffd782"/><path d="m16 14h2v5h-2z" fill="#ffd782"/><path d="m27 5h10a0 0 0 0 1 0 0v40a4 4 0 0 1 -4 4h-2a4 4 0 0 1 -4-4v-40a0 0 0 0 1 0 0z" fill="#55b56a" transform="matrix(-1 0 0 -1 64 54)"/><path d="m22 49h20v12h-20z" fill="#ad6327" transform="matrix(-1 0 0 -1 64 110)"/><path d="m43 25v-8a4 4 0 0 1 4-4 4 4 0 0 1 4 4v10a8 8 0 0 1 -8 8h-6v-8h4a2 2 0 0 0 2-2z" fill="#69cc7b"/><path d="m21 32v-10a4 4 0 0 0 -4-4 4 4 0 0 0 -4 4v12a8 8 0 0 0 8 8h6v-8h-4a2 2 0 0 1 -2-2z" fill="#69cc7b"/><path d="m43 32h-6v-2h6a3 3 0 0 0 3-3v-2h2v2a5.006 5.006 0 0 1 -5 5z" fill="#42874f"/><path d="m27 39h-6a5.006 5.006 0 0 1 -5-5v-1h2v1a3 3 0 0 0 3 3h6z" fill="#42874f"/><path d="m16 29h2v2h-2z" fill="#42874f"/><path d="m46 16h2v2h-2z" fill="#42874f"/><path d="m31 8h2v2h-2z" fill="#ffd782"/><path d="m31 12h2v4h-2z" fill="#42874f"/><g fill="#ffd782"><path d="m37 42h4v2h-4z"/><path d="m37 38h5v2h-5z"/><path d="m22 11h5v2h-5z"/><path d="m23 15h4v2h-4z"/><path d="m51 18h5v2h-5z"/><path d="m51 22h4v2h-4z"/><path d="m51 26h5v2h-5z"/><path d="m40 17h3v2h-3z"/><path d="m40 21h3v2h-3z"/><path d="m8 22h5v2h-5z"/><path d="m8 26h5v2h-5z"/><path d="m30 19h2v2h-2z"/><path d="m32 24h2v2h-2z"/><path d="m30 29h2v2h-2z"/><path d="m32 33h2v2h-2z"/><path d="m30 37h2v2h-2z"/><path d="m32 41h2v2h-2z"/></g><path d="m32 58h-7v-6h2v4h5z" fill="#66342e"/><path d="m34 56h2v2h-2z" fill="#66342e"/></svg>