<svg height="512" viewBox="0 0 64 64" width="512" xmlns="http://www.w3.org/2000/svg"><rect fill="#f4f4e6" height="48" rx="2" width="58" x="3" y="3"/><g fill="#55b56a"><circle cx="32" cy="35" r="3"/><path d="m53 17c-4.952-5.794-12.78-9-21-9s-16.048 3.206-21 9l3 3a23.326 23.326 0 0 1 18-8 23.326 23.326 0 0 1 18 8z"/><path d="m17 23a19.133 19.133 0 0 1 15-7 19.133 19.133 0 0 1 15 7l-3.012 3.012a14.958 14.958 0 0 0 -23.976 0z"/><path d="m23 29a10.6 10.6 0 0 1 18 0l-3 3a6.873 6.873 0 0 0 -6-4 6.873 6.873 0 0 0 -6 4z"/></g><path d="m27 51h10l4 6h-18z" fill="#7d8d9c"/><path d="m16 57h32v4h-32z" fill="#aabece"/><path d="m3 43h58a0 0 0 0 1 0 0v6a2 2 0 0 1 -2 2h-54a2 2 0 0 1 -2-2v-6a0 0 0 0 1 0 0z" fill="#aabece"/><path d="m31 46h2v2h-2z" fill="#394d5c"/></svg>