<svg id="Capa_1" enable-background="new 0 0 512 512" height="512" viewBox="0 0 512 512" width="512" xmlns="http://www.w3.org/2000/svg"><path d="m176 128c-.676 0-1.352.011-2.028.032-7.166-27.858-32.573-48.032-61.972-48.032-35.29 0-64 28.71-64 64 0 2.679.168 5.35.501 8h-.501c-.899 0-1.765.148-2.572.422-12.166 1.537-23.373 7.32-31.728 16.411-8.834 9.613-13.7 22.103-13.7 35.167s4.866 25.554 13.7 35.167c8.355 9.091 19.563 14.874 31.728 16.411.807.274 1.673.422 2.572.422h128c35.29 0 64-28.71 64-64s-28.71-64-64-64z" fill="#e1dee1"/><path d="m192 224h-128c-.899 0-1.765-.148-2.572-.422-12.166-1.537-23.373-7.32-31.728-16.411-8.834-9.613-13.7-22.103-13.7-35.167 0-1.957.122-3.899.338-5.823-.905.854-1.79 1.733-2.638 2.656-8.834 9.613-13.7 22.103-13.7 35.167s4.866 25.554 13.7 35.167c8.355 9.091 19.563 14.874 31.728 16.411.807.274 1.673.422 2.572.422h128c31.389 0 57.553-22.721 62.958-52.575-11.699 12.641-28.416 20.575-46.958 20.575z" fill="#c2bec4"/><path d="m498.3 112.833c-8.354-9.091-19.563-14.874-31.728-16.411-.807-.274-1.673-.422-2.572-.422h-.501c.333-2.65.501-5.321.501-8 0-35.29-28.71-64-64-64-29.399 0-54.807 20.174-61.972 48.032-.676-.021-1.352-.032-2.028-.032-35.29 0-64 28.71-64 64s28.71 64 64 64h128c.899 0 1.765-.148 2.572-.422 12.165-1.537 23.373-7.32 31.728-16.411 8.835-9.613 13.7-22.103 13.7-35.167s-4.865-25.554-13.7-35.167z" fill="#e1dee1"/><path d="m490.572 167.578c-.807.274-1.673.422-2.572.422h-128c-35.29 0-64-28.71-64-64 0-7.143 1.194-14.009 3.363-20.43-16.527 11.584-27.363 30.76-27.363 52.43 0 35.29 28.71 64 64 64h128c.899 0 1.765-.148 2.572-.422 12.165-1.537 23.373-7.32 31.728-16.411 5.888-6.406 10-14.094 12.097-22.373-6.041 3.564-12.77 5.892-19.825 6.784z" fill="#c2bec4"/><path d="m400 264c-7.354 0-14.621.707-21.744 2.109 3.782-10.919 5.744-22.472 5.744-34.109 0-57.346-46.654-104-104-104-54.017 0-98.548 41.395-103.535 94.128-13.051-4.07-26.617-6.128-40.465-6.128-74.991 0-136 61.009-136 136s61.009 136 136 136h264c61.757 0 112-50.243 112-112s-50.243-112-112-112z" fill="#f0eff0"/><path d="m432 440h-264c-74.991 0-136-61.009-136-136 0-17.478 3.317-34.194 9.349-49.558-25.484 24.732-41.349 59.325-41.349 97.558 0 74.991 61.009 136 136 136h264c49.203 0 91.097-31.893 106.097-76.092-19.761 17.47-45.71 28.092-74.097 28.092z" fill="#d1ced3"/></svg>