<?xml version="1.0" encoding="iso-8859-1"?>
<!-- Generator: Adobe Illustrator 19.0.0, SVG Export Plug-In . SVG Version: 6.00 Build 0)  -->
<svg version="1.1" id="Capa_1" xmlns="http://www.w3.org/2000/svg" xmlns:xlink="http://www.w3.org/1999/xlink" x="0px" y="0px"
	 viewBox="0 0 434.8 434.8" style="enable-background:new 0 0 434.8 434.8;" xml:space="preserve">
<path style="fill:#73BF2D;" d="M140.648,280.8c211.2-48.8,0-275.6,0-275.6S-70.552,232.4,140.648,280.8z"/>
<path style="fill:#20953D;" d="M140.648,5.2v275.6C351.848,232.4,140.648,5.2,140.648,5.2z"/>
<path style="fill:#73BF2D;" d="M313.048,294c149.2-34.4,0-194.8,0-194.8S163.848,259.6,313.048,294z"/>
<path style="fill:#20953D;" d="M313.048,100v194C461.848,259.6,313.048,100,313.048,100z"/>
<path style="fill:#182D00;" d="M319.048,382.4v-84c34.8-8.8,56-25.6,63.6-50c18.8-61.6-61.6-149.2-65.2-152.8l0,0
	c-1.2-1.2-2.4-1.6-4-1.6s-3.2,0.8-4,1.6l0,0c-3.6,3.6-84,91.2-64.8,153.2c7.6,24.4,28.8,40.8,63.6,50v82.8
	c-38.8-3.2-77.2-3.2-85.6-3.2c-7.6,0-40.4,0-75.6,2.4v-95.6c49.2-12.4,79.6-35.6,90-69.6c25.6-86-87.6-208.8-92.4-214l0,0
	c-1.2-1.2-2.4-1.6-4-1.6s-3.2,0.8-4,1.6l0,0c-4.8,5.2-118,128-91.2,214.4c10,33.6,40,57.2,89.2,69.2v96.4
	c-42.8,3.6-85.2,10.4-85.2,24.8c0,27.6,154.4,28.4,172,28.4s172-0.8,172-28.4C393.848,393.2,358.248,386.4,319.048,382.4z
	 M371.448,245.2c-6,19.6-23.6,33.2-52.4,41.2v-31.6l36.4-25.2c2.8-1.6,3.2-5.2,1.6-8c-1.6-2.4-5.2-3.2-8-1.6l-30,20.8v-34.4l29.2-20
	c2.8-1.6,3.2-5.2,1.6-8c-1.6-2.4-5.2-3.2-8-1.6l-22.8,15.6v-29.6l12.4-8.4c2.8-1.6,3.2-5.2,1.6-8s-5.2-3.2-8-1.6l-5.6,4v-34
	C339.848,140.4,384.648,202,371.448,245.2z M255.048,245.2c-13.2-43.6,31.6-105.2,52.4-130.4v34.4l-5.6-4c-2.8-1.6-6-1.2-8,1.6
	c-1.6,2.8-1.2,6,1.6,8l12.4,8.4v29.6l-22.8-15.6c-2.8-1.6-6-1.2-8,1.6c-1.6,2.8-1.2,6,1.6,8l29.2,20v34.4l-32.8-22.8
	c-2.4-1.6-6-1.2-8,1.6c-1.6,2.8-1.2,6,1.6,8l39.2,27.2v31.6C278.648,278.8,261.048,264.8,255.048,245.2z M225.048,212.4
	c-8.8,29.2-35.6,49.6-78.8,60.8V224l52.8-36.4c2.8-1.6,3.2-5.2,1.6-8c-1.6-2.4-5.2-3.2-8-1.6l-46.4,32v-54.4l42.4-29.2
	c2.8-1.6,3.2-5.2,1.6-8c-1.6-2.4-5.2-3.2-8-1.6l-35.6,24.8V94l18.4-12.8c2.8-1.6,3.2-5.2,1.6-8c-1.6-2.4-5.2-3.2-8-1.6l-12,8V20.8
	C173.448,52.8,245.448,146.8,225.048,212.4z M55.848,212.4c-20-65.6,52-159.6,78.8-192v59.2l-12-8c-2.8-1.6-6-1.2-8,1.6
	c-1.6,2.8-1.2,6,1.6,8l18.4,12.8v47.6l-35.6-24.4c-2.8-1.6-6-1.2-8,1.6c-1.6,2.8-1.2,6,1.6,8l42.4,29.2v54.4l-50.4-34.8
	c-2.8-1.6-6-1.2-8,1.6c-1.6,2.8-1.2,6,1.6,8l56.8,39.2V274C91.448,262,65.048,241.6,55.848,212.4z M221.848,423.2
	c-90.4,0-149.6-9.6-159.6-16.8c6.4-4.4,32-10,72.8-13.6v9.2c0,3.2,2.4,5.6,5.6,5.6c3.2,0,5.6-2.4,5.6-5.6v-10
	c21.6-1.6,47.2-2.4,75.6-2.4c33.2,0,62,1.2,85.6,3.2v10c0,3.2,2.4,5.6,5.6,5.6s5.6-2.4,5.6-5.6V394c34.8,3.6,56.8,8.4,62.4,12.4
	C371.048,413.6,312.248,423.2,221.848,423.2z"/>
<g>
</g>
<g>
</g>
<g>
</g>
<g>
</g>
<g>
</g>
<g>
</g>
<g>
</g>
<g>
</g>
<g>
</g>
<g>
</g>
<g>
</g>
<g>
</g>
<g>
</g>
<g>
</g>
<g>
</g>
</svg>
