<svg height="512" viewBox="0 0 64 64" width="512" xmlns="http://www.w3.org/2000/svg"><g id="Filled_outline" data-name="Filled outline"><path d="m31 19h2v43h-2z" fill="#8ec13f"/><path d="m14 32h6a8 8 0 0 1 8 8v2a0 0 0 0 1 0 0h-6a8 8 0 0 1 -8-8v-2a0 0 0 0 1 0 0z" fill="#69cc7b"/><path d="m22.5 33.592h2v10.817h-2z" fill="#55aa61" transform="matrix(.555 -.832 .832 .555 -21.985 36.92)"/><path d="m40 42h6a0 0 0 0 1 0 0v2a8 8 0 0 1 -8 8h-6a0 0 0 0 1 0 0v-2a8 8 0 0 1 8-8z" fill="#69cc7b" transform="matrix(-1 0 0 -1 78 94)"/><path d="m31.092 48h10.817v2h-10.817z" fill="#55aa61" transform="matrix(.832 -.555 .555 .832 -21.05 28.476)"/><path d="m44 34.053c-1.953 1.033-5.06.779-6-1s.047-4.967 2-6c2.652-1.4 10-1 10-1s-3.348 6.599-6 8z" fill="#55b56a"/><path d="m37.054 28.553h13.892v2.001h-13.892z" fill="#428950" transform="matrix(.864 -.504 .504 .864 -8.897 26.185)"/><path d="m45.758 33.023-4-1a1 1 0 0 1 -.758-.969v-5h2v4.218l3.242.812z" fill="#428950"/><path d="m21 28c1.953 1.032 5.06.778 6-1s-.047-4.968-2-6c-2.652-1.4-10-1-10-1s3.348 6.6 6 8z" fill="#55b56a"/><path d="m20 16.554h2.001v13.892h-2.001z" fill="#428950" transform="matrix(.504 -.864 .864 .504 -9.88 29.798)"/><path d="m19.242 26.97-.484-1.94 3.242-.811v-4.219h2v5a1 1 0 0 1 -.758.97z" fill="#428950"/><path d="m39 13c0 4.418-3.134 6-7 6s-7-1.582-7-6 7-10 7-10 7 5.582 7 10z" fill="#69cc7b"/><path d="m31 8h2v11h-2z" fill="#55aa61"/><path d="m31.379 12.5h4.243v2h-4.243z" fill="#55aa61" transform="matrix(.707 -.707 .707 .707 .266 27.642)"/><path d="m29.5 9.197h2v3.606h-2z" fill="#55aa61" transform="matrix(.555 -.832 .832 .555 4.429 30.276)"/><path d="m31 47c0-.164-.057-4-3-4v-2c3.955 0 5 3.925 5 6h-1z" fill="#8ec13f"/><path d="m33 46h-2c0-12.709 6.564-13.89 6.844-13.934l.312 1.975-.156-.987.17.985c-.212.04-5.17 1.094-5.17 11.961z" fill="#8ec13f"/><path d="m33 40h-2c0-10.876-4.154-12.011-4.2-12.02l.392-1.96c.241.046 5.808 1.306 5.808 13.98z" fill="#8ec13f"/><path d="m22 49h4a6 6 0 0 1 6 6v2a0 0 0 0 1 0 0h-4a6 6 0 0 1 -6-6v-2a0 0 0 0 1 0 0z" fill="#69cc7b"/><path d="m27.999 50.595h2.001v7.81h-2.001z" fill="#55aa61" transform="matrix(.64 -.768 .768 .64 -31.433 41.888)"/><g fill="#fcf05a"><path d="m37 22h2v2h-2z"/><path d="m18 45h2v2h-2z"/><path d="m44 37h2v2h-2z"/><path d="m19 14h2v2h-2z"/><path d="m39 3h2v2h-2z"/></g><path d="m50.055 25.056c-.78-.044-7.706-.375-10.522 1.114a6.178 6.178 0 0 0 -2.79 6.265 8.333 8.333 0 0 0 -3.743 3.756v-16.228c4.463-.319 7-2.816 7-6.963 0-4.844-7.075-10.542-7.377-10.782a1 1 0 0 0 -1.246 0c-.302.24-7.377 5.938-7.377 10.782 0 4.147 2.537 6.644 7 6.963v9.609a7.624 7.624 0 0 0 -2.758-3.107 6.178 6.178 0 0 0 -2.774-6.349c-2.817-1.489-9.743-1.157-10.523-1.116a1 1 0 0 0 -.837 1.45c.358.7 3.574 6.925 6.424 8.432a6.917 6.917 0 0 0 3.984.661 4.769 4.769 0 0 0 2.809-1.313c1.125.707 3.675 3.248 3.675 11.77v2.055a4.242 4.242 0 0 0 -2-.952v-1.103a9.01 9.01 0 0 0 -9-9h-7v3a9.01 9.01 0 0 0 9 9h6c2.943 0 3 3.839 3 4v3.108a6.973 6.973 0 0 0 -5-2.108h-5v3a7.009 7.009 0 0 0 7 7h3v4h2v-9h5a9.01 9.01 0 0 0 9-9v-3h-7a8.983 8.983 0 0 0 -6.954 3.294c.393-7.444 3.329-9.523 4.575-10.07a4.728 4.728 0 0 0 2.862 1.376 6.917 6.917 0 0 0 3.984-.661c2.85-1.507 6.066-7.727 6.424-8.432a1 1 0 0 0 -.837-1.45zm-28.055-3.843v1.712l-3.368-1.965a31.088 31.088 0 0 1 3.368.253zm-2.771 3.7c-.52-.677-1.033-1.422-1.5-2.162l3.045 1.776zm5.015 2.651a4.871 4.871 0 0 1 -2.777-.447 4.03 4.03 0 0 1 -.72-.523l2.494-.623 2.136 1.246a3.407 3.407 0 0 1 -1.133.346zm-.244-3.472v-2.425a4.126 4.126 0 0 1 .533.217 4.168 4.168 0 0 1 1.818 3.579zm3 16.04-7.445-4.964-1.11 1.664 6.255 4.168h-2.7a7.009 7.009 0 0 1 -7-7v-1h5a7.009 7.009 0 0 1 7 7zm2.237 15.868h-1.237a5.006 5.006 0 0 1 -5-5v-1h3a5 5 0 0 1 4.985 4.852l-4.344-3.621-1.282 1.538zm1.763-48v2.132l-1.445-.964-1.11 1.664 2.555 1.703v5.409c-3.307-.273-5-1.923-5-4.944 0-2.9 3.885-6.867 6-8.7 2.116 1.829 6 5.788 6 8.7 0 3.021-1.693 4.671-5 4.944v-2.53l2.707-2.707-1.414-1.414-1.293 1.293v-4.586zm9 35h5v1a7.009 7.009 0 0 1 -7 7h-2.7l6.252-4.168-1.11-1.664-7.442 4.964v-.132a7.009 7.009 0 0 1 7-7zm3-15.727a31.151 31.151 0 0 1 3.36-.254l-3.36 1.96zm-2.532.665a3.984 3.984 0 0 1 .532-.222v2.43l-2.351 1.371a4.166 4.166 0 0 1 1.819-3.579zm3.065 5.232a4.856 4.856 0 0 1 -2.777.447 3.407 3.407 0 0 1 -1.138-.349l2.136-1.246 2.494.624a3.99 3.99 0 0 1 -.715.524zm2.238-2.2-1.544-.386 3.045-1.784c-.472.744-.981 1.489-1.501 2.166z"/><path d="m37 22h2v2h-2z"/><path d="m18 45h2v2h-2z"/><path d="m44 37h2v2h-2z"/><path d="m19 14h2v2h-2z"/><path d="m39 3h2v2h-2z"/></g></svg>